# xmcd
#
# Track frame offsets:
#	150
#	29308
#	57932
#	73333
#	88691
#	107122
#	126488
#	139959
#	157688
#	178644
#	200613
#	214599
#	232730
#
# Disc length: 3424 seconds
# Revision: 3
# Processed by: cddbd v1.5.2PL0 Copyright (c) Steve Scherf et al.
# Submitted via: dBpowerAMP V12.0
#
DISCID=b80d5e0d
DTITLE=Jamey Johnson - The Guitar Song, CD02 - CD02
DYEAR=2010
DGENRE=Country
TTITLE0=By The Seat Of Your Pants
TTITLE1=California Riots
TTITLE2=Dog In The Yard
TTITLE3=The Guitar Song
TTITLE4=That's Why I Write Songs
TTITLE5=Macon
TTITLE6=Thankful For The Rain
TTITLE7=Good Morning Sunrise
TTITLE8=Front Porch Swing Afternoon
TTITLE9=I Remember You
TTITLE10=Good Times Ain't What They Used To Be
TTITLE11=For The Good Times
TTITLE12=My Way To You
EXTD=
EXTT0=
EXTT1=
EXTT2=
EXTT3=
EXTT4=
EXTT5=
EXTT6=
EXTT7=
EXTT8=
EXTT9=
EXTT10=
EXTT11=
EXTT12=
PLAYORDER=
